/* XPM */
static char *beba205649ec46a9cd572047edd0f3a0[] = {
/* columns rows colors chars-per-pixel */
"64 64 118 2 ",
"   c #4C5C1E",
".  c #4E621D",
"X  c #57671C",
"o  c #4C5B20",
"O  c #4E5D28",
"+  c #546326",
"@  c #576821",
"#  c #596A25",
"$  c #56642B",
"%  c #5A672F",
"&  c #5C6C2C",
"*  c #5F712D",
"=  c #566534",
"-  c #596732",
";  c #576831",
":  c #5D6C34",
">  c #5D6C3B",
",  c #5F7132",
"<  c #5F703A",
"1  c #606F2C",
"2  c #63752C",
"3  c #6A7C2E",
"4  c #606F35",
"5  c #606E3A",
"6  c #647434",
"7  c #667834",
"8  c #6A7B35",
"9  c #65743B",
"0  c #68773C",
"q  c #67793D",
"w  c #6B7C3C",
"e  c #707F3D",
"r  c #657342",
"t  c #697743",
"y  c #677842",
"u  c #6D7C43",
"i  c #667649",
"p  c #6A774B",
"a  c #6D7C4A",
"s  c #707F44",
"d  c #717F4A",
"f  c #727F51",
"g  c #6E8136",
"h  c #6E813C",
"j  c #718535",
"k  c #72843D",
"l  c #76893D",
"z  c #798B3D",
"x  c #7D903E",
"c  c #6E8143",
"v  c #6F804A",
"b  c #748444",
"n  c #788746",
"m  c #768943",
"M  c #7A8B45",
"N  c #75844A",
"B  c #78874C",
"V  c #76894B",
"C  c #7B8C4B",
"Z  c #7E9144",
"A  c #7E914B",
"S  c #758452",
"D  c #788652",
"F  c #778851",
"G  c #7D8D52",
"H  c #79865A",
"J  c #7E8C5B",
"K  c #7E9154",
"L  c #7F9059",
"P  c #808F4B",
"I  c #819445",
"U  c #859945",
"Y  c #82934D",
"T  c #86994D",
"R  c #899C4E",
"E  c #808F53",
"W  c #818E5B",
"Q  c #839453",
"!  c #889752",
"~  c #869953",
"^  c #8A9B54",
"/  c #85955A",
"(  c #88975B",
")  c #869959",
"_  c #8B9B5B",
"`  c #8CA14D",
"'  c #91A54C",
"]  c #8EA155",
"[  c #8EA15B",
"{  c #92A454",
"}  c #96AA54",
"|  c #9AAE54",
" . c #92A35C",
".. c #96A95D",
"X. c #99AC5E",
"o. c #859362",
"O. c #889761",
"+. c #879862",
"@. c #8D9C62",
"#. c #8E9C6B",
"$. c #919F63",
"%. c #909D6F",
"&. c #8EA160",
"*. c #93A363",
"=. c #96A963",
"-. c #9AAB64",
";. c #95A56A",
":. c #98A66B",
">. c #96A969",
",. c #9BAB6B",
"<. c #9DB065",
"1. c #9EB16A",
"2. c #9EAE72",
"3. c #A0B361",
"4. c #A3B36A",
"5. c #A1AF74",
"6. c #A3B373",
"7. c #ACBC7D",
/* pixels */
"Z M Y $.e 9 s P W 0 z ! n ` ^ f N Q _ E u b w u f D 0 @.Y m k D 4.4.I R ^ M n B b M $.C *._ ! [ D Y P M U C u u i 4 Q w B n Y ! ",
"N Q B X.8 P ! ! E P ^ n e ! P : K / W C B d t p r 5 S :.D V K W R 4. .=.4./ $.( j M 6 Q ( W ( B 6 _ C B Q B E ^ % G E k l Y Y *.",
"d P P 3.R { M P 6 P ! B P z ! 6 2 0 9 B 9 W S t > 6 _ / u O.c K -.-.^ ^ *.Q n $ b u : s 6 u =.[ l $.B e u _ R ! ^ C e E N P ! 1 ",
" .k {  .x ! [ *.n I E @.s P n E / M k b ( M @.t o P ! / u K ] C ' R { Y ( e d E _ _ M u b Q Q [ C ;.E ( E _ h k @.@.b [ ! P n s ",
"k ! ! C z b Y M e 3 ( E ! P f e b P * b C q V O B m C / V m T K R ..g [ ^ b Y @.[ Y ! k u P  .R Q ( :.W M _ ^ P S / / 8 8 k 1 P ",
"b :.C C _ U U ' P s E P ^ P E s _ d t b A c < F P u y > F C K V U R [ ~ e n b ^ W C @.B ! Y } l Q ^ N a s b ;.R Q _ ) u ( / ! P ",
"D B E ^ Q x Y } Y % P ^ ^ P 6 u B D v q >.V y b u w < r S m M m Y P _ Q q &.u n k C @./ C _ :.! =.Y ( w 4 C M k &.&.~ w ( ( t W ",
"d D Q e R n l @.M 9 _ I P s P 5 a C h q A 8 M m B b . N G K A Z b b b / K W b B t ( s : b @.-.=.! E ( Y ( B e > h m w 9 G 9 a a ",
"l W ,.P C B L C G C E t u E ^ P $.E [ ! _ D t e m A c ) A A L A ]  .b u ,.Q C Y N ( b 5 C 4.[ b z *.Q e n E C b w N u w t t H u ",
"u $.( b Y Z ^ k D _ k n Y { Y Q / :.! C h B q b q c ` h L c ~ m U k -.B _ N 0 N 5 / W N C  .b 7 G B B t 5 $ 7 B M t W b 4 D G B ",
"N *./ i G ( | ..b R j _ ,.^ n E N P Y q E B E V L V c y ) l A ~ k ;._ b b u K 7 w Q E s u  .Y W ( u ( b G b 1 b A h B K B $.o.> ",
" .M w 0 D N m A C M 8 s b M U M P _ b _ C w e b q m V V Z l h g D *.E B Y B b B u q _ d + w Q G Y W w Q M 9 u Z _ q 6 m E N W e ",
"C 9 M U ] V r J b h k M ;.C 6 t M >./ C V V h K V c Z V v N h m h u Y M / B b a P P u N w Y e S W > W D : u s E M C b ! M *.;.u ",
"w H ~ l Z ^ i V 0 E b C E 8 M ( Y w k _ m & A K m V A c h c c C ^ u m M / b ! D _ C E C B M ! _ 5 E W G w w b G e K _ P M Q / B ",
"G L K ~ ~ h 8 k Z h b b W ! M ! m C / K V h ) A V A v q m k K E B u b Y / R w e W 6 e s n Z P 9 b Q P M M M Y n b / 7 M M q / B ",
"H C &.~ h A ~ D B M ^ m M R I h l K G / C Z K , < c m ) y Q M _ B U 6 u M _ L 8 7 e b w E R k 7 W N B _ / N + n K B E l # u b B ",
"J r Y Z C N B C m V q &.>.V A , c &.A =.Z c q v M C N 5 D B l M e @._ w B G C Q P _ 6 w P w e @.C N N b C E / Y u @.b y < c y L ",
"m r N b t U x u T 7 j A A j A q ~ Z V K ) c V K e 9 8 I ^ P h N Y =.^ B O.! R 6 Q m Z Z u b u @.k M M 6 t 9 _ N A K c b c L L L ",
"W y C ..-.b P b j , K V V T V c ~ m h A m q K K / ( w w ^ M e E m B N e Y w e I C B Q ( Z b Q E X b b C C b n [ w A _ C ~ K V A ",
"[ w Q ! Z 7 k l m h m &.Z A * ) ~ * ~ V c , * V x u 9 C W b x E [ U I w m n s G d ( _ C b m M { D C n s C ! I B ~ c C k A [ &.K ",
"[ 5 b ..Q M M e m q q ~ V Z T ) l Z &.V K c K q w b B *.k 8 6 Q $.b 9 Q ^ P _ Q Z P C 6 ( b _ ( I b C -.Q r 9 C c V K c V K ) A ",
"B G _ k [ R 3 a m h ) ] ~ Z ~ h ~ =.~ K c , K ~ E S b l 6 M M W E O N C M _ _ I w n 1 Q E b _ B B k / N 9 q E G q L K c A V K V ",
"I E o.S ! ' I N h ~ 1.=.A A l V V c h V A c ) &.B C C w C M M *.P M z & N E u = C b u C b _ k b b B B b w ( ! Y +.V q K q q K V ",
"n i K U Y ! P W l &.>.V T l T &.A V A A ~ m ~ c P u b M E M M B ( s Q I m ^ Y P R [ ^ w C _ B ( Y Z ! _ P 7 C b A &.c A K c V +.",
"Z 9 E z ^ ~ 7 W M A *.^ ` [ ) V c ) ~ ` F 7 T ) V V ~ c b B K N e Y A 8 ~  .A L _ P E 7 C B C K S b b *.h _ B k c F ] A 8 h < L ",
"_ E _ ^ *.2.k A A ~ )  .~ ~ 7 F 8 A &.K c m ` q 7 7 7 m M b 2 n ~ c q h &.b h Z Q b C Z A B b u K s M M u 9 M C +.F K q q V v c ",
"E ^ ( B 8 K Z U ~ c C h q m A &.V A q h >.Z m q A ~ A h ^ _ G 9 V c & Z j A c m q C E C b Q E 9 9 D Y w q b c r K A y c c K V V ",
"_ P 4 - ~ m C h A V &.A m ~ A V V ) Z ~ ) 7 m q K m c h q k ! k C _ K A T ) m Z b ^ q / _ _ b B E M A ( / t v 7 c q v c &.y h V ",
"C ! m _ ` Z c V [ Z m c Z ] ) m V A K c , h m 7 C c q q Y ! C M F =.&.) K &.m [ b E B w E *._ 9 b Y E : < y N V &.A K A &.V ..) ",
"w -.X. .A c c &.[ j T V X.~ <.A V ` V K &.=.V K M g A V B V b _ q =.} 7 [ ` l V 6 ! C B B ( 6 M _ 0 8 ^ V v K V h T q K <.K T V ",
"A [ A <._ h K =.T A A K =.~ T Z +.T A V &.A ; V G u V G C *.Y ! ~ &.] q ) A A m w C B b B ^ u ^ Y Q _ _ L F c A ) V h ~ A K v v ",
"Z h c ^ K h j T Z c c >.V T l c K T q V m # A V h V *.G b b Q E  .&.K ~ =.V K V w b B u E Y P P b  .$.6 . c V 7 K V Z A V c i y ",
"I W U R C U n N M Q W C { M b k Y M 1 ! ( C C C C ) ) C + K ~ K &.~ [ ^ A K ^ ~ B b e q / b E C b +.f D ! h / G M c v N c V q h ",
"6 $.' x _ { b k e C b P m m ] Q ^ Y n P C _ [ A K 6.b A c +.m A A &.[ A A >.) y : B w M M k P E N N P u b t b z ~ E [ T * h &.A ",
"b M R _ P M B b C e M Q E  .R N _ u n ( $.1 m C h q &.F V K T K A ) A c ;.b C $ u ^ k ! k M P b d P _ b u r + k C G C C A L >. .",
"^ k ( *.X.` M ! Y M m P ( ! b C h b ( @.n C A m m v A A c &.) A ~ ) K K ) c / K _ B E ( k Q b b k w 0 4 t s Y Y q u ; ; J L F K ",
"b 8 ^ ! Z P ^ R ( m e C b _ u 7 6 c ( b b e b b q W ^ *.V h K A _ 6.Y C u W B u n # s / B N [ P 8 b D r B b $.( A q V &.K A v i ",
"Y ! Z P # * 7 b h & b h M @.w Y [ ) _ _ B b m / Z *.C W m ~ &.K / [ B ;.@.e q C 9 W u P w ( C u 8 C G b u b / E 8 y i K A c < y ",
"Y E > R R P M _ b 6 M P _ b 9 P A k C ! Q _ b _ G I b B A V q &.k C ) / B B E Y N B b C w w B 6 B B _ b u G & Y m q y ) F > v J ",
"B k Y } P u I t a _ ! P E n ! I T M Y 7 q c Q >./ k ;.@.<.c &.A M [ _ B Q 6 B _ M b G D u _ b k ( B / ! Y & b E T K  .` h , v A ",
"Q Y R R A G c Z b I M C b C n 9 ) C E 7 q 6.w C c V K K A Z ~ &.E M e  .^ B E / M G p a M U k d B E / w C K *.B m V C A G C A C ",
"~ A h T Z T K A b M 7 $.u P k  .,._ ( _ ( ,.b Q T =.) &.~ 7 K F C u B Q w / E E 6 b 9 8 ( 0 d [ Y + B _ B E w C ) F K K G A ..] ",
"q [ ` l h &.c l D B Y Q @.=.M  ./ _ C _ b C _ Q L >.V &.V q V V W u E E 4 G B W G _ b ^ w u B Z ^ B C _ 6 b / b l A q m O.E l C ",
"v E v A m K q h C M k h Q C R ! 7 b E B b C e b c v q +.) V h q G / C K d / w G s b ! E 7 [ ^ 4 M 6.E & 9 K M b [ c C c 5 D # 9 ",
"E b e C A ^ C c b M M ( ( ( M b n [ e ^ R M Z M h h A 1.v G J a s u B 9 N N B O.Y / s Y e [ / ^ M 6./ : s B / B 6 S B n V A R *.",
"B B b b V K k A n z j E 6 E _ w k / b k Y C  .M h A &.V V v L G w B b W D G B E u C Y _ P b E ,.Q Y w C s B k 8 7 N e k C / I *.",
"R [ S G b {  .~ Y M k n 9 E [ ^ E ( b C ! ! k M v A A V V u b c E G b G D P / k B ^ g P K N 6.Q I C E b u w C k E e k m E _ b B ",
"U ! B K e  .] z W Y k q B M ^ k E [ *.P _ P m Y c ~ ` m c v O.G _ B B t W b B ^ C K Z M e u C ^ ! ( N b G _ P _ L O C ! C Z U x ",
"w C K w E E b Y E Y z j Z U [ v E ! / B C T ~ T ~ _ h q d E ( B G G h B O.( d Q K k w e C C b P B _ K W w C b u 4 b _ _ M e ! q ",
"N / b E C P P R Y Q B Y M ^ b Z ( C 7 ( Y M K m C ^ A A _ P 4 B _ b p _ ! M R E u M b K P ( w k ! / B ! M P  .b C Y [ ! b b b C ",
"% O.u b M Z T M M V _ b K _ _ { w Y _ _ ^ ~ A ] C C Y Z l P Q Q C ! C  .k 0 M M ^ M ! B ^ C B q w Y  .m P ^ Z E M P =.$.Q C B : ",
"C P Z ^ ^ l E B w l M q q Z 1._ e M k n ^ w ^ A Y ^ ~ A 7 7 _ E X.P ! C u b _ I  .M ~ ! [ e _ E k q ! Y Y 8 ! @.x Z h Z b 7 9 W ",
"E k k k I C ! Y 9 M R P e } { b ! ( 8 8 b ~ h * [ =.b B w W _ P ..@.G D _ I k ! I =.Y e n B *.@.w / G E k M Z C _ P ! [ b C ( Y ",
"N   b ! ! z ! I T 8 B P k I x R C b Y b q K 6 V b u C D 9 ( b P @.=.Q $.( D P m Z *.! M n B ^ P B ( S G % P ( Y *.C P ^ ! R =.! ",
"K C _ _ ! T ..l P e e Y M e I R 7 6 / h D c * G Q D E 4 B @.w d R { l =.B @.W 0 k ;.Y z K Y z B 8 n a > N C M P n M n  .[ Y P m ",
"! [ b _ B ~ ^ 8 p w  .! T I [ u M K * Y c v u 9 / N u h Q M 7 @.<.-.-.-.R m u C ..C M M _ =.{ B Z C s u t Y Y R M k Y I ! [ =._ ",
"P e z x 0 P P 1 W e ! 0 P s e P E u r B 7 u > t J d B W o.s B ( _ :.d P E e e P ! k M l ^ O.: s { $.Q 9 ! U  .! G Z n N w M ( E ",
"P s e X I ! n P E 4 n e ( s e ! b r u b Q d 4 K  .E 5 C P P N $.Q s - a W d _ P k Y  .[ :.( b ] | ( D N ( I 3.I k M B m j 4 4 M ",
"$ n P n ! z x $.! B P P 0 e ! P 6 9 / Q Y w B P B Y ^ E N w 6 d n 0 d ( Q ! d I C -.R { 4.R R U =.R Q *. .P P s C Y l 6 P l M M ",
"e P n e P e P P e n k s d s $._ ! B N _ ,.( u G / B w n d D Q  .P E Y _ I ] P ] @._ R [ ! U R ^ [ U W E b 1 + P B Y P n P 3 P ( ",
"d s ! n n ! P e P P P W d D / :.} B N B [ n J S 5 5 H N n Q n P ! e b P n k { { ^ ^ h 0 u ( [ R I  .E P $ E P E s O.E n s n 6 P ",
"n P P e 1 P P % P E s s d f E s R E / 0 e ,.u H % _ 7.O.n Y I  .^ 0 / *.:.W ^ e _ Y I B @.u Q n ( *.( Q e :.:.t P O.e 6 ( E n e ",
"I P e { ! 6 D D ! n P s : W s P ,.( ( Y ( 2.u G E @.C M E t P Y *.s Y R ! b n D Q C ( 4.! :.@.^ 5.=.Q #.@./ D ] s ! ! s 5 ! 3 9 ",
"x z 3 3.n P D d P P B 0 E 5.! ] %.#.W ( G W D I E @.B @.D s t E  .I P b M m e Y k / ! @.E :.Q } C G ( E f s E d P D ! ! E P z n "
};
